<svg width="14" height="14" viewBox="0 0 14 14" fill="none" xmlns="http://www.w3.org/2000/svg">
<g clip-path="url(#clip0_1222_43917)">
<path d="M5.21436 1.64286C5.21436 1.14975 5.6141 0.75 6.10721 0.75H12.3572C12.8503 0.75 13.2501 1.14975 13.2501 1.64286V12.3571C13.2501 12.8503 12.8503 13.25 12.3572 13.25H9.23221" stroke="white" stroke-linecap="round" stroke-linejoin="round"/>
<path d="M8.11598 7.001C8.9792 7.001 9.67898 6.30122 9.67898 5.438C9.67898 4.57478 8.9792 3.875 8.11598 3.875C7.25276 3.875 6.55298 4.57478 6.55298 5.438C6.55298 6.30122 7.25276 7.001 8.11598 7.001Z" stroke="white" stroke-linecap="round" stroke-linejoin="round"/>
<path d="M2.53564 6.10718L4.35369 6.1072C4.6189 6.1072 4.87325 6.21256 5.06078 6.40009L7.6 8.93931C7.78754 9.12685 8.04191 9.2322 8.30713 9.2322L9.6785 9.23218" stroke="white" stroke-linecap="round" stroke-linejoin="round"/>
<path d="M6.10714 7.44641L3.72146 9.83209C3.53393 10.0196 3.27957 10.125 3.01436 10.125H0.75" stroke="white" stroke-linecap="round" stroke-linejoin="round"/>
<path d="M4.32141 9.23218L5.81423 10.725C6.00177 10.9125 6.10713 11.1669 6.10713 11.4321V13.25" stroke="white" stroke-linecap="round" stroke-linejoin="round"/>
</g>
<defs>
<clipPath id="clip0_1222_43917">
<rect width="14" height="14" fill="white"/>
</clipPath>
</defs>
</svg>
